<?xml version="1.0" encoding="UTF-8" standalone="no"?>
<!-- Created with Inkscape (http://www.inkscape.org/) -->

<svg
   xmlns:dc="http://purl.org/dc/elements/1.1/"
   xmlns:cc="http://creativecommons.org/ns#"
   xmlns:rdf="http://www.w3.org/1999/02/22-rdf-syntax-ns#"
   xmlns:svg="http://www.w3.org/2000/svg"
   xmlns="http://www.w3.org/2000/svg"
   xmlns:sodipodi="http://sodipodi.sourceforge.net/DTD/sodipodi-0.dtd"
   xmlns:inkscape="http://www.inkscape.org/namespaces/inkscape"
   width="180"
   height="60"
   viewBox="0 -50 180 0"
   id="svg2"
   version="1.1"
   inkscape:version="0.91 r13725"
   sodipodi:docname="badelog.svg">
  <defs
     id="defs4" />
  <sodipodi:namedview
     id="base"
     pagecolor="#ffffff"
     bordercolor="#666666"
     borderopacity="1.0"
     inkscape:pageopacity="0.0"
     inkscape:pageshadow="2"
     inkscape:zoom="2.8284271"
     inkscape:cx="84.215951"
     inkscape:cy="23.84194"
     inkscape:document-units="px"
     inkscape:current-layer="layer1"
     showgrid="false"
     units="px"
     showborder="true"
     inkscape:showpageshadow="false"
     height="50"
     inkscape:window-width="1325"
     inkscape:window-height="744"
     inkscape:window-x="41"
     inkscape:window-y="24"
     inkscape:window-maximized="1" />
  <metadata
     id="metadata7">
    <rdf:RDF>
      <cc:Work
         rdf:about="">
        <dc:format>image/svg+xml</dc:format>
        <dc:type
           rdf:resource="http://purl.org/dc/dcmitype/StillImage" />
        <dc:title></dc:title>
      </cc:Work>
    </rdf:RDF>
  </metadata>
  <g
     inkscape:label="Layer 1"
     inkscape:groupmode="layer"
     id="layer1"
     transform="translate(0,-1142.3622)">
    <text
       xml:space="preserve"
       style="font-style:normal;font-weight:normal;font-size:17.41321564px;line-height:125%;font-family:sans-serif;letter-spacing:0px;word-spacing:0px;fill:#000000;fill-opacity:1;stroke:none;stroke-width:1px;stroke-linecap:butt;stroke-linejoin:miter;stroke-opacity:1"
       x="4.7025437"
       y="1196.5537"
       id="text3346"
       sodipodi:linespacing="125%"><tspan
         sodipodi:role="line"
         id="tspan3348"
         x="4.7025437"
         y="1196.5537"
         style="font-style:normal;font-variant:normal;font-weight:normal;font-stretch:normal;font-family:'Space Mono';-inkscape-font-specification:'Space Mono'"><tspan
   style="font-size:19.83041763px"
   id="tspan3369">A</tspan>lumni Directory</tspan></text>
    <text
       xml:space="preserve"
       style="font-style:normal;font-variant:normal;font-weight:normal;font-stretch:normal;font-size:39.98993301px;line-height:125%;font-family:'Space Mono';-inkscape-font-specification:'Space Mono';letter-spacing:0px;word-spacing:0px;fill:#000000;fill-opacity:1;stroke:none;stroke-width:1px;stroke-linecap:butt;stroke-linejoin:miter;stroke-opacity:1"
       x="6.5394278"
       y="1187.256"
       id="text3336"
       sodipodi:linespacing="125%"
       transform="scale(1.0083422,0.99172681)"><tspan
         sodipodi:role="line"
         x="6.5394278"
         y="1187.256"
         id="tspan3340"
         style="font-style:normal;font-variant:normal;font-weight:bold;font-stretch:normal;font-family:'Space Mono';-inkscape-font-specification:'Space Mono Bold'">BadeLog</tspan></text>
    <g
       id="g4388"
       transform="matrix(1.0611747,-0.01504028,0.01504028,1.0611747,-14.718503,-45.006584)">
      <path
         style="fill:#000000;fill-opacity:1;stroke:#000000;stroke-width:0.457506;stroke-miterlimit:4;stroke-dasharray:none;stroke-opacity:1"
         d="m 4.8445985,1132.7864 c 0.13102,-0.1305 0.195773,-0.3443 0.225264,-0.7438 0.03598,-0.4873 -0.137978,-1.1158 -0.423825,-1.5312 -0.105418,-0.1532 -0.22464,-0.3038 -0.264926,-0.3347 -0.05815,-0.044 -0.07135,-0.096 -0.06436,-0.249 0.01345,-0.2944 -0.215786,-0.6471 -0.441535,-0.6793 -0.101653,-0.015 -0.197303,-0.1504 -0.57401,-0.8153 -0.232974,-0.4112 -0.34819,-0.9607 -0.284346,-1.356 0.07819,-0.4839 0.09674,-0.5148 0.291888,-0.4867 0.08883,0.013 0.374263,0.037 0.634468,0.053 0.641527,0.032 1.312003,0.1007 1.897695,0.1383 1.273144,0.1076 2.6288415,0.1553 3.7946815,0.2741 0.362929,0.039 0.417152,0.041 0.502873,0.016 0.0501,-0.015 0.158623,-0.087 0.240975,-0.1598 2.765787,-2.3783 5.398029,-4.6497 7.844383,-6.7629 0.09791,-0.082 0.218604,-0.1841 0.27085,-0.2238 0.194778,-0.1478 0.07632,-0.1954 -0.434132,-0.1743 -2.993655,0.086 -6.613052,0.2422 -9.463853,0.2967 -0.4323165,0.01 -0.5428165,0.046 -0.8633505,0.3036 -7.411089,5.6614 0,0 -7.280235,5.5538 -0.05366,0.035 -0.112622,0.083 -0.130915,0.1075 -0.0183,0.024 -0.0986,0.089 -0.178248,0.1434 -0.14175504,0.096 -0.17326004,0.2391 -0.04463,0.2013 0.74106604,0.078 1.352055,0.076 2.078442,0.1537 l 0.182769,0.02 -0.04429,0.1622 c -0.02437,0.089 -0.05512,0.2907 -0.06833,0.4478 -0.03642,0.4336 0.173117,1.1107 0.533315,1.7233 0.147185,0.2504 0.287076,0.4704 0.310854,0.489 0.101606,0.079 0.145699,0.2171 0.0976,0.3053 -0.03697,0.067 -0.08161,0.206 -0.01921,0.4181 0.0768,0.2612 0.154565,0.2601 0.302967,0.3452 0.09019,0.052 0.191884,0.086 0.22598,0.076 0.157495,-0.046 0.218934,0.9798 0.09375,1.5662 -0.03215,0.1506 -0.109109,0.3538 -0.171059,0.4516 -0.06481,0.1029 -0.09546,0.2004 -0.07209,0.231 0.04724,0.062 0.698918,0.1665 0.917653,0.1474 0.08241,-0.01 0.180724,-0.014 0.218592,-0.016 0.03791,0 0.109308,-0.043 0.158471,-0.092 z m -0.664674,-0.029 c -0.142964,-0.02 -0.307169,-0.038 -0.364923,-0.039 -0.134436,0 -0.142009,-0.036 -0.04551,-0.2005 0.18434,-0.3142 0.258209,-1.0968 0.163541,-1.7325 -0.05192,-0.3485 0.07317,-0.471 -0.02217,-0.443 -0.08871,0.026 -0.498411,-0.099 -0.572896,-0.237 -0.05111,-0.095 -0.05918,-0.1883 -0.03091,-0.3474 0.03513,-0.1961 0.02844,-0.2341 -0.06807,-0.3867 -0.05888,-0.093 -0.186192,-0.3027 -0.282991,-0.4657 -0.09677,-0.1631 -0.222466,-0.3664 -0.279321,-0.4518 -0.0568,-0.085 -0.157907,-0.3482 -0.224652,-0.5839 -0.100786,-0.3557 -0.116009,-0.4794 -0.09007,-0.7277 0.01721,-0.1646 0.05629,-0.3616 0.08682,-0.4381 0.107163,-0.2678 0.04364,-0.3043 -0.582158,-0.3339 -0.422132,-0.01 -0.867312,-0.084 -1.257729,-0.093 -0.441193,-0.01 -0.446273,0 0.317164,-0.579 2.603225,-2.0059 4.669555,-3.5571 7.209791,-5.5164 l 0.2697275,-0.011 c 3.347021,-0.1147 6.311826,-0.1894 9.53794,-0.3049 l 0.436407,-0.016 -0.221542,0.1935 c -2.67882,2.385 -5.606951,4.7947 -7.887078,6.8052 l -0.146164,0.1318 -0.450197,-0.031 -6.0072805,-0.4353 c -0.02027,0.01 -0.125106,0 -0.232457,-0.023 -0.384103,-0.064 -0.470023,0.031 -0.549873,0.6028 -0.04413,0.316 0.150158,1.1002 0.369834,1.4929 0.306648,0.5481 0.441059,0.7193 0.657082,0.8371 0.180513,0.098 0.21835,0.1418 0.266248,0.3046 0.03067,0.1043 0.04007,0.2072 0.02087,0.2287 -0.0442,0.049 -0.118232,0.322 -0.05533,0.3392 0.02573,0.01 0.285541,0.1147 0.406302,0.2895 0.308255,0.446 0.43133,0.8645 0.406542,1.3823 -0.01166,0.2434 -0.05458,0.4562 -0.118096,0.5859 -0.08679,0.1771 -0.119227,0.2061 -0.247826,0.2234 -0.08194,0.01 -0.265872,0 -0.408819,-0.018 z m 7.7342545,-3.0394 c 0.585492,-1.911 1.843608,-3.2016 3.656907,-3.7513 l 0.586104,-0.1777 -0.09564,-0.32 c -0.142235,-0.4759 -0.600553,-1.4143 -0.802985,-1.6441 -0.03572,-0.04 -0.124764,-0.1554 -0.197864,-0.2552 -0.074,-0.101 -0.159913,-0.1734 -0.193862,-0.1635 -0.03353,0.01 -0.14702,0.094 -0.252318,0.1861 -1.358728,1.1915 -2.905763,2.4993 -4.163609,3.604 l -0.197394,0.1717 -0.387222,-0.027 c -1.368529,-0.093 -2.6368775,-0.1964 -3.9940695,-0.2936 -0.182617,-0.013 -0.459079,-0.03 -0.614415,-0.037 -0.155289,-0.01 -0.311653,-0.025 -0.347446,-0.039 -0.107821,-0.043 -0.175408,0.047 -0.173669,0.2343 0.0024,0.3162 0.132974,1.1028 0.252027,1.5186 0.106899,0.3734 0.475951,1.2346 0.545275,1.2724 0.01644,0.01 0.151958,-0.045 0.300532,-0.1229 0.606736,-0.3111 0.827494,-0.3966 1.405447,-0.5439 0.456445,-0.1166 0.722503,-0.1585 1.0858225,-0.1721 0.264661,-0.01 0.505394,-0.01 0.534973,0 0.02943,0.012 0.105974,0.021 0.169768,0.021 0.53548,0 1.700894,0.3867 2.395022,0.7973 0.148954,0.088 0.292426,0.154 0.318782,0.1462 0.02639,-0.01 0.102462,-0.192 0.169096,-0.4095 z m -1.366112,-0.2944 c -0.218778,-0.083 -0.435877,-0.1598 -0.482391,-0.1717 -0.374342,-0.095 -0.683286,-0.1548 -0.870294,-0.1675 -0.121577,-0.01 -0.2461,-0.024 -0.276734,-0.036 -0.06197,-0.023 -0.7064855,0 -1.0547015,0.033 -0.255497,0.027 -1.361978,0.3395 -1.595199,0.4511 -0.175116,0.084 -0.5124085,0.2344 -0.6093365,0.294 -0.09942,0.061 -0.3349535,-0.3957 -0.5569495,-1.1584 -0.171969,-0.5909 -0.237452,-0.9556 -0.251096,-1.3985 l -0.0053,-0.1709 0.365336,0.023 c 1.540481,0.1101 3.1227135,0.2146 4.6906215,0.3492 0.186345,0.017 0.251551,0.042 0.404762,0.023 0.159204,-0.092 0.09324,-0.098 0.305825,-0.2831 1.301412,-1.1503 2.677006,-2.2881 4.080314,-3.5323 0.08751,-0.079 0.178728,-0.129 0.202756,-0.1138 0.07835,0.05 0.452166,0.5961 0.618346,0.9034 0.196029,0.3625 0.395681,0.8106 0.470922,1.0569 l 0.05531,0.1812 -0.458049,0.1394 c -0.252653,0.074 -0.559665,0.1847 -0.683616,0.2407 -0.301681,0.1368 -1.01507,0.5342 -1.05709,0.5888 -0.01846,0.024 -0.113973,0.1028 -0.211433,0.1758 -0.153905,0.1147 -0.256138,0.2118 -0.652729,0.6217 -0.161943,0.167 -0.602588,0.8283 -0.749347,1.1239 -0.177905,0.3583 -0.355345,0.8093 -0.455118,1.1571 l -0.0785,0.1686 -0.3687,-0.1414 c -0.208871,-0.1143 -0.55878,-0.2753 -0.777558,-0.3579 z"
         id="path3444"
         inkscape:connector-curvature="0"
         sodipodi:nodetypes="csssssssscccsccsccccsscccssssssssssssssccsssscssssssccccccccccccsssssssscsscccccsssscccccsssscssscsssccccssssssscccccccsscssssssscsccc" />
      <path
         sodipodi:nodetypes="ccsscsscssscssccsscssscsssssssssssc"
         inkscape:connector-curvature="0"
         id="path3572"
         d="m 3.9896223,1132.8015 c -0.158314,-0.02 -0.3311094,-0.062 -0.3379892,-0.083 -0.00673,-0.02 0.023219,-0.14 0.066553,-0.2255 0.1428702,-0.282 0.2078426,-0.7444 0.1950702,-1.5304 -0.010517,-0.6471 0.01734,-0.6028 -0.034297,-0.6029 -0.1288286,-3e-4 -0.344594,-0.01 -0.4310611,-0.1043 -0.089045,-0.098 -0.3575027,-0.2632 -0.2465437,-0.4865 l 0.065351,-0.2426 -0.3958816,-0.6125 c -0.4028492,-0.6232 -0.4921932,-0.9344 -0.5705139,-1.3911 -0.034067,-0.1987 -0.020712,-0.3244 0.028545,-0.59 0.097088,-0.5236 0.1513177,-0.4467 0.080521,-0.4846 -0.035197,-0.019 -0.2745432,-0.049 -0.5318802,-0.067 -0.2573371,-0.018 -0.607892,-0.046 -0.7790111,-0.063 -0.1711191,-0.017 -0.4205005,0.035 -0.5271734,0.035 -0.2136055,-6e-4 -0.4352766,-0.098 -0.4073666,-0.1704 0.019045,-0.05 1.1658731,-0.8087 4.3550414,-3.2414 1.0330388,-0.788 2.2694295,-1.7333 2.747535,-2.1006 l 0.8692824,-0.6679 1.1036708,-0.037 c 0.607019,-0.021 2.2400927,-0.072 3.6290527,-0.1147 1.38896,-0.043 3.190714,-0.1003 4.003899,-0.128 0.813185,-0.028 1.582898,-0.09 1.58894,-0.084 0.02337,0.023 -1.985065,1.7265 -4.851366,4.1736 -1.169337,0.9983 -2.275876,2.0372 -2.648029,2.3628 -0.392744,0.3435 -0.813508,0.6913 -0.850002,0.6913 -0.1766057,0 -6.5805156,-0.4973 -6.8014555,-0.5265 -0.2609684,-0.034 -0.3343269,0.067 -0.4003272,0.48 -0.078308,0.4901 0.1495485,1.2893 0.5510252,1.9326 0.1527252,0.2448 0.2983924,0.341 0.5046034,0.4686 0.1726082,0.1068 0.3302949,0.4007 0.2999572,0.6022 -0.059159,0.393 -0.1235147,0.2112 0.052388,0.307 0.3691261,0.2009 0.7422051,0.9142 0.7422051,1.5347 0,0.4437 -0.1972099,0.8473 -0.3585764,0.9603 -0.081142,0.057 -0.2851452,0.058 -0.7121662,0.01 z"
         style="fill:#ffffff;fill-opacity:1;stroke:#000000;stroke-width:0.001;stroke-miterlimit:4;stroke-dasharray:none;stroke-opacity:0" />
      <path
         sodipodi:nodetypes="sssssssscsssssscssssccs"
         inkscape:connector-curvature="0"
         id="path3574"
         d="m 11.321731,1129.7907 c -0.448123,-0.2411 -1.070349,-0.4863 -1.477511,-0.5824 -0.832685,-0.1966 -1.7213601,-0.203 -2.4368303,-0.017 -0.6717239,0.1741 -1.0023741,0.2886 -1.3805825,0.4781 -0.2037365,0.1021 -0.3901967,0.1857 -0.4143561,0.1857 -0.061124,0 -0.2586209,-0.3601 -0.3787114,-0.7481 -0.0922,-0.2978 -0.2617827,-0.6413 -0.334299,-0.9638 -0.083849,-0.373 -0.2409244,-0.7485 -0.1308153,-0.9319 l 0.088129,-0.1468 0.1581907,-0.011 c 0.1980647,-0.014 3.3227499,0.2801 4.3940849,0.3712 0.975658,0.083 0.900905,0.088 1.055916,-0.074 0.162141,-0.1692 0.325777,-0.3126 1.898505,-1.6634 0.69448,-0.5964 1.515936,-1.3055 1.825458,-1.5758 0.309522,-0.2702 0.607129,-0.6769 0.76938,-0.5194 0.05503,0.053 -0.0507,-0.04 0.03446,0.068 0.309339,0.3928 0.713736,1.0397 0.922485,1.5686 0.189173,0.4793 0.242864,0.5051 -0.08138,0.6013 -0.638383,0.1893 -1.24313,0.3905 -1.756337,0.7023 -0.663171,0.4029 -1.344324,1.157 -1.803633,1.9967 -0.137573,0.2516 -0.371143,0.8285 -0.480274,1.1862 -0.04461,0.1463 -0.0909,0.2652 -0.102868,0.2642 -0.01197,-9e-4 -0.178023,-0.086 -0.369011,-0.1884 z"
         style="fill:#ffffff;fill-opacity:1;stroke:#000000;stroke-width:0.001;stroke-miterlimit:4;stroke-dasharray:none;stroke-opacity:0" />
    </g>
  </g>
</svg>
